<svg width="30" height="30" viewBox="0 0 30 30" fill="none" xmlns="http://www.w3.org/2000/svg">
    <path
        d="M9.96562 3.43266C14.5422 -1.14388 21.9908 -1.14388 26.5674 3.43266C31.1429 8.01019 31.1429 15.4579 26.5674 20.0354C22.4918 24.1099 16.1444 24.5465 11.5708 21.3648C11.4746 21.8202 11.2544 22.2547 10.9002 22.6089L4.23528 29.2738C3.26401 30.2431 1.69452 30.2431 0.728216 29.2738C-0.242054 28.3035 -0.242054 26.734 0.728216 25.7667L7.39312 19.0998C7.74531 18.7486 8.18084 18.5274 8.63621 18.4312C5.45258 13.8566 5.8891 7.51017 9.96562 3.43266ZM12.0699 17.9312C15.4866 21.3479 21.0473 21.3479 24.4631 17.9312C27.8779 14.5144 27.8779 8.95466 24.4631 5.53789C21.0473 2.1221 15.4866 2.1221 12.0699 5.53789C8.65308 8.95466 8.65308 14.5144 12.0699 17.9312Z"
        fill="#202020" fill-opacity="0.5" />
</svg>